<?xml version="1.0" encoding="UTF-8"?>
<svg id="Layer_2" data-name="Layer 2" xmlns="http://www.w3.org/2000/svg" viewBox="0 0 613.6 542.2">
  <defs>
    <style>
      .cls-1 {
        stroke-miterlimit: 10;
      }

      .cls-1, .cls-2 {
        fill: none;
        stroke: #133b4a;
        stroke-width: 18px;
      }

      .cls-2 {
        stroke-linecap: round;
        stroke-linejoin: round;
      }
    </style>
  </defs>
  <g id="Sun">
    <path class="cls-1" d="M368.08,288.94c5.58-14.82,8.63-30.88,8.63-47.65,0-74.78-60.63-135.41-135.41-135.41s-135.42,60.63-135.42,135.41c0,59.17,37.95,109.48,90.84,127.91"/>
  </g>
  <g id="Rays">
    <line class="cls-2" x1="241.3" y1="55.59" x2="241.3" y2="9"/>
    <line class="cls-2" x1="55.59" y1="241.29" x2="9" y2="241.29"/>
    <line class="cls-2" x1="473.59" y1="241.29" x2="427" y2="241.29"/>
    <line class="cls-2" x1="109.98" y1="109.98" x2="77.03" y2="77.03"/>
    <line class="cls-2" x1="109.98" y1="372.61" x2="77.03" y2="405.55"/>
    <line class="cls-2" x1="405.55" y1="77.03" x2="372.61" y2="109.98"/>
  </g>
  <g id="Layer_6" data-name="Layer 6">
    <path class="cls-2" d="M463.45,533.2H169.43c-32.84,0-59.45-26.62-59.45-59.45,0-16.41,6.65-31.28,17.41-42.04,10.76-10.75,25.62-17.41,42.04-17.41h19.89c-.49-3.47-.74-7.02-.74-10.63,0-42.47,34.42-76.89,76.89-76.89,20.74,0,39.57,8.21,53.39,21.57,12.16-40.75,49.93-70.45,94.64-70.45,51.01,0,92.99,38.68,98.2,88.31h9.41c23.06,0,43.93,9.35,59.04,24.45,15.1,15.12,24.45,35.99,24.45,59.05,0,46.11-37.38,83.49-83.49,83.49h-143.8"/>
  </g>
</svg>